<svg width="25" height="24" viewBox="0 0 25 24" fill="none" xmlns="http://www.w3.org/2000/svg">
<path d="M12.5001 11.2156C13.368 11.2156 14.0716 10.5121 14.0716 9.64418C14.0716 8.77631 13.368 8.07275 12.5001 8.07275C11.6323 8.07275 10.9287 8.77631 10.9287 9.64418C10.9287 10.5121 11.6323 11.2156 12.5001 11.2156Z" stroke="#274640" stroke-linecap="round" stroke-linejoin="round"/>
<path d="M12.5 19.0728C12.5 19.0728 18 15.2651 18 10.3695C18 8.92683 17.4205 7.54326 16.3891 6.52314C15.3576 5.50303 13.9587 4.92993 12.5 4.92993C11.0413 4.92993 9.64236 5.50303 8.61091 6.52314C7.57946 7.54326 7 8.92683 7 10.3695C7 15.2651 12.5 19.0728 12.5 19.0728Z" stroke="#274640" stroke-linecap="round" stroke-linejoin="round"/>
</svg>
