<svg width="25" height="24" viewBox="0 0 25 24" fill="none" xmlns="http://www.w3.org/2000/svg">
<path fill-rule="evenodd" clip-rule="evenodd" d="M18 10.3846C18 15.2308 12.5 19 12.5 19C12.5 19 7 15.2308 7 10.3846C7 8.95653 7.57946 7.58693 8.61091 6.57712C9.64236 5.56731 11.0413 5 12.5 5C13.9587 5 15.3576 5.56731 16.3891 6.57712C17.4205 7.58693 18 8.95653 18 10.3846ZM14.0716 9.64418C14.0716 10.5121 13.368 11.2156 12.5001 11.2156C11.6323 11.2156 10.9287 10.5121 10.9287 9.64418C10.9287 8.77631 11.6323 8.07275 12.5001 8.07275C13.368 8.07275 14.0716 8.77631 14.0716 9.64418Z" fill="#D4DAD9"/>
</svg>
