<svg width="30" height="26" viewBox="0 0 30 26" fill="none" xmlns="http://www.w3.org/2000/svg">
<mask id="path-1-outside-1_939_753" maskUnits="userSpaceOnUse" x="0.40625" y="0.34375" width="30" height="26" fill="black">
<rect fill="white" x="0.40625" y="0.34375" width="30" height="26"/>
<path d="M25.6563 2.34375H4.34377C3.82991 2.34375 3.3371 2.54788 2.97375 2.91123C2.6104 3.27458 2.40627 3.76739 2.40627 4.28125V22.6875C2.40528 22.8528 2.44715 23.0156 2.5278 23.1599C2.60844 23.3042 2.72511 23.4251 2.86642 23.5109C3.0066 23.599 3.16702 23.6498 3.33238 23.6582C3.49773 23.6667 3.6625 23.6327 3.81095 23.5594L7.25002 21.8277L10.6891 23.5594C10.8251 23.6248 10.9741 23.6588 11.125 23.6588C11.276 23.6588 11.425 23.6248 11.561 23.5594L15 21.8277L18.4391 23.5594C18.5755 23.6232 18.7244 23.6562 18.875 23.6562C19.0257 23.6562 19.1745 23.6232 19.311 23.5594L22.75 21.8277L26.1891 23.5594C26.3375 23.6327 26.5023 23.6667 26.6677 23.6582C26.833 23.6498 26.9934 23.599 27.1336 23.5109C27.2749 23.4251 27.3916 23.3042 27.4722 23.1599C27.5529 23.0156 27.5947 22.8528 27.5938 22.6875V4.28125C27.5938 3.76739 27.3896 3.27458 27.0263 2.91123C26.6629 2.54788 26.1701 2.34375 25.6563 2.34375V2.34375ZM21.2969 14.9375H8.70314C8.44621 14.9375 8.19981 14.8354 8.01813 14.6538C7.83646 14.4721 7.73439 14.2257 7.73439 13.9687C7.73439 13.7118 7.83646 13.4654 8.01813 13.2837C8.19981 13.1021 8.44621 13 8.70314 13H21.2969C21.5538 13 21.8002 13.1021 21.9819 13.2837C22.1636 13.4654 22.2656 13.7118 22.2656 13.9687C22.2656 14.2257 22.1636 14.4721 21.9819 14.6538C21.8002 14.8354 21.5538 14.9375 21.2969 14.9375ZM21.2969 11.0625H8.70314C8.44621 11.0625 8.19981 10.9604 8.01813 10.7788C7.83646 10.5971 7.73439 10.3507 7.73439 10.0937C7.73439 9.83682 7.83646 9.59041 8.01813 9.40874C8.19981 9.22706 8.44621 9.125 8.70314 9.125H21.2969C21.5538 9.125 21.8002 9.22706 21.9819 9.40874C22.1636 9.59041 22.2656 9.83682 22.2656 10.0937C22.2656 10.3507 22.1636 10.5971 21.9819 10.7788C21.8002 10.9604 21.5538 11.0625 21.2969 11.0625Z"/>
</mask>
<path d="M25.6563 2.34375H4.34377C3.82991 2.34375 3.3371 2.54788 2.97375 2.91123C2.6104 3.27458 2.40627 3.76739 2.40627 4.28125V22.6875C2.40528 22.8528 2.44715 23.0156 2.5278 23.1599C2.60844 23.3042 2.72511 23.4251 2.86642 23.5109C3.0066 23.599 3.16702 23.6498 3.33238 23.6582C3.49773 23.6667 3.6625 23.6327 3.81095 23.5594L7.25002 21.8277L10.6891 23.5594C10.8251 23.6248 10.9741 23.6588 11.125 23.6588C11.276 23.6588 11.425 23.6248 11.561 23.5594L15 21.8277L18.4391 23.5594C18.5755 23.6232 18.7244 23.6562 18.875 23.6562C19.0257 23.6562 19.1745 23.6232 19.311 23.5594L22.75 21.8277L26.1891 23.5594C26.3375 23.6327 26.5023 23.6667 26.6677 23.6582C26.833 23.6498 26.9934 23.599 27.1336 23.5109C27.2749 23.4251 27.3916 23.3042 27.4722 23.1599C27.5529 23.0156 27.5947 22.8528 27.5938 22.6875V4.28125C27.5938 3.76739 27.3896 3.27458 27.0263 2.91123C26.6629 2.54788 26.1701 2.34375 25.6563 2.34375V2.34375ZM21.2969 14.9375H8.70314C8.44621 14.9375 8.19981 14.8354 8.01813 14.6538C7.83646 14.4721 7.73439 14.2257 7.73439 13.9687C7.73439 13.7118 7.83646 13.4654 8.01813 13.2837C8.19981 13.1021 8.44621 13 8.70314 13H21.2969C21.5538 13 21.8002 13.1021 21.9819 13.2837C22.1636 13.4654 22.2656 13.7118 22.2656 13.9687C22.2656 14.2257 22.1636 14.4721 21.9819 14.6538C21.8002 14.8354 21.5538 14.9375 21.2969 14.9375ZM21.2969 11.0625H8.70314C8.44621 11.0625 8.19981 10.9604 8.01813 10.7788C7.83646 10.5971 7.73439 10.3507 7.73439 10.0937C7.73439 9.83682 7.83646 9.59041 8.01813 9.40874C8.19981 9.22706 8.44621 9.125 8.70314 9.125H21.2969C21.5538 9.125 21.8002 9.22706 21.9819 9.40874C22.1636 9.59041 22.2656 9.83682 22.2656 10.0937C22.2656 10.3507 22.1636 10.5971 21.9819 10.7788C21.8002 10.9604 21.5538 11.0625 21.2969 11.0625Z" fill="white"/>
<path d="M25.6563 2.34375H4.34377C3.82991 2.34375 3.3371 2.54788 2.97375 2.91123C2.6104 3.27458 2.40627 3.76739 2.40627 4.28125V22.6875C2.40528 22.8528 2.44715 23.0156 2.5278 23.1599C2.60844 23.3042 2.72511 23.4251 2.86642 23.5109C3.0066 23.599 3.16702 23.6498 3.33238 23.6582C3.49773 23.6667 3.6625 23.6327 3.81095 23.5594L7.25002 21.8277L10.6891 23.5594C10.8251 23.6248 10.9741 23.6588 11.125 23.6588C11.276 23.6588 11.425 23.6248 11.561 23.5594L15 21.8277L18.4391 23.5594C18.5755 23.6232 18.7244 23.6562 18.875 23.6562C19.0257 23.6562 19.1745 23.6232 19.311 23.5594L22.75 21.8277L26.1891 23.5594C26.3375 23.6327 26.5023 23.6667 26.6677 23.6582C26.833 23.6498 26.9934 23.599 27.1336 23.5109C27.2749 23.4251 27.3916 23.3042 27.4722 23.1599C27.5529 23.0156 27.5947 22.8528 27.5938 22.6875V4.28125C27.5938 3.76739 27.3896 3.27458 27.0263 2.91123C26.6629 2.54788 26.1701 2.34375 25.6563 2.34375V2.34375ZM21.2969 14.9375H8.70314C8.44621 14.9375 8.19981 14.8354 8.01813 14.6538C7.83646 14.4721 7.73439 14.2257 7.73439 13.9687C7.73439 13.7118 7.83646 13.4654 8.01813 13.2837C8.19981 13.1021 8.44621 13 8.70314 13H21.2969C21.5538 13 21.8002 13.1021 21.9819 13.2837C22.1636 13.4654 22.2656 13.7118 22.2656 13.9687C22.2656 14.2257 22.1636 14.4721 21.9819 14.6538C21.8002 14.8354 21.5538 14.9375 21.2969 14.9375ZM21.2969 11.0625H8.70314C8.44621 11.0625 8.19981 10.9604 8.01813 10.7788C7.83646 10.5971 7.73439 10.3507 7.73439 10.0937C7.73439 9.83682 7.83646 9.59041 8.01813 9.40874C8.19981 9.22706 8.44621 9.125 8.70314 9.125H21.2969C21.5538 9.125 21.8002 9.22706 21.9819 9.40874C22.1636 9.59041 22.2656 9.83682 22.2656 10.0937C22.2656 10.3507 22.1636 10.5971 21.9819 10.7788C21.8002 10.9604 21.5538 11.0625 21.2969 11.0625Z" stroke="#274640" stroke-width="4" mask="url(#path-1-outside-1_939_753)"/>
</svg>
